<?xml version="1.0" encoding="utf-8"?>
<!-- Generator: Adobe Illustrator 16.0.0, SVG Export Plug-In . SVG Version: 6.00 Build 0)  -->
<!DOCTYPE svg PUBLIC "-//W3C//DTD SVG 1.1//EN" "http://www.w3.org/Graphics/SVG/1.1/DTD/svg11.dtd">
<svg version="1.1" id="Layer_1" xmlns="http://www.w3.org/2000/svg" xmlns:xlink="http://www.w3.org/1999/xlink" x="0px" y="0px"
	 width="512px" height="512px" viewBox="0 0 512 512" enable-background="new 0 0 512 512" xml:space="preserve">
<g>
	<path fill-rule="evenodd" clip-rule="evenodd" fill="#D5E3EF" d="M226.707,55.686h51.144h21.261h44.882h100.159V16H343.993h-44.882
		h-21.261h-51.144H67.848v39.686H226.707z M226.707,73.166H67.848v23.975L216.787,246.08V496l9.92-9.92l57.874-57.874l0,0
		l10.75-10.747V245.958l48.662-48.658L444.152,97.141V73.048H343.993h-66.143v0.118H226.707z"/>
	<path fill-rule="evenodd" clip-rule="evenodd" fill="#B1C5D9" d="M398.087,113.441L398.087,113.441l-24.447,24.447L271.116,240.529
		v183.66l0,0c-0.118,0.708-0.826,20.435-9.094,26.575l33.309-33.306V245.958L444.152,97.141V73.048h-93.783
		c0,0,2.718,16.415,21.143,16.415s24.097,0,24.097,0s7.792,0.712,10.864,6.616c2.836,5.55-2.006,10.982-2.596,11.577l0,0v0.118
		h-0.122l0,0L398.087,113.441z"/>
	<path fill-rule="evenodd" clip-rule="evenodd" fill="#ECF0F9" d="M67.848,73.166L67.848,73.166v-0.118h210.003
		c0,17.48-36.971,16.296-36.971,16.296H85.918l74.175,66.26c0,0,39.331-3.186,59.054,22.327
		c19.727,25.626,14.413,56.454,14.413,56.454v189.568v3.663c0.354,9.094,3.068,32.242,23.385,28.227l-35.197,35.197v-0.118
		l-4.96,5.078V246.08L67.848,97.141V73.166z"/>
	<polygon fill-rule="evenodd" clip-rule="evenodd" fill="#364A5D" points="363.834,390.53 322.378,390.53 383.324,496 
		444.152,390.53 401.041,390.53 401.041,215.606 363.834,215.606 	"/>
	<path fill-rule="evenodd" clip-rule="evenodd" fill="#B1C5D9" d="M67.848,55.686c0,0,2.718-13.701,29.765-13.701
		s320.437,0,320.437,0s15.707-1.066,14.291-13.583C430.806,16,413.562,16,413.562,16h30.591v39.686H67.848z"/>
	<path fill-rule="evenodd" clip-rule="evenodd" fill="#203543" d="M363.834,238.991c0,0,3.779-13.11,15.592-13.11
		s10.746,13.823,10.746,13.823v156.967c0,0,9.095,21.143-4.605,44.291C371.748,464.111,383.324,496,383.324,496l60.828-105.47
		h-43.111V215.606h-37.207V238.991z"/>
</g>
</svg>
