<?xml version="1.0" ?><!DOCTYPE svg  PUBLIC '-//W3C//DTD SVG 1.1//EN'  'http://www.w3.org/Graphics/SVG/1.1/DTD/svg11.dtd'><svg xmlns="http://www.w3.org/2000/svg" xmlns:xlink="http://www.w3.org/1999/xlink" xmlns:serif="http://www.serif.com/" width="100%" height="100%" viewBox="0 0 512 512" version="1.1" xml:space="preserve" style="fill-rule:evenodd;clip-rule:evenodd;stroke-linejoin:round;stroke-miterlimit:2;"><g transform="matrix(1,0,0,1,0,-1686)"><g id="Icons"><path d="M431.556,1718.38C431.556,1706.58 421.974,1697 410.173,1697C410.173,1697 101.827,1697 101.827,1697C90.026,1697 80.444,1706.58 80.444,1718.38C80.444,1718.38 80.444,2165.62 80.444,2165.62C80.444,2177.42 90.026,2187 101.827,2187L410.173,2187C421.974,2187 431.556,2177.42 431.556,2165.62C431.556,2165.62 431.556,1718.38 431.556,1718.38ZM131.556,1707L101.827,1707C95.545,1707 90.444,1712.1 90.444,1718.38L90.444,2165.62C90.444,2171.9 95.545,2177 101.827,2177L131.556,2177L131.556,2144.22C131.556,2141.46 133.796,2139.22 136.556,2139.22C139.315,2139.22 141.556,2141.46 141.556,2144.22L141.556,2177L410.173,2177C416.455,2177 421.556,2171.9 421.556,2165.62L421.556,1718.38C421.556,1712.1 416.455,1707 410.173,1707L141.556,1707L141.556,1744.78L392.111,1744.78C394.873,1744.78 397.111,1747.02 397.111,1749.78L397.111,1814.22C397.111,1816.98 394.873,1819.22 392.111,1819.22L141.556,1819.22L141.556,2110.89C141.556,2113.65 139.315,2115.89 136.556,2115.89C133.796,2115.89 131.556,2113.65 131.556,2110.89L131.556,1819.22L119.889,1819.22C117.127,1819.22 114.889,1816.98 114.889,1814.22L114.889,1749.78C114.889,1747.02 117.127,1744.78 119.889,1744.78L131.556,1744.78L131.556,1707ZM198.778,1869.22L313.222,1869.22C315.982,1869.22 318.222,1866.98 318.222,1864.22C318.222,1861.46 315.982,1859.22 313.222,1859.22L198.778,1859.22C196.018,1859.22 193.778,1861.46 193.778,1864.22C193.778,1866.98 196.018,1869.22 198.778,1869.22ZM198.778,1844.78L313.222,1844.78C315.982,1844.78 318.222,1842.54 318.222,1839.78C318.222,1837.02 315.982,1834.78 313.222,1834.78L198.778,1834.78C196.018,1834.78 193.778,1837.02 193.778,1839.78C193.778,1842.54 196.018,1844.78 198.778,1844.78ZM387.111,1754.78L387.111,1809.22C387.111,1809.22 124.889,1809.22 124.889,1809.22C124.889,1809.22 124.889,1754.78 124.889,1754.78C124.889,1754.78 387.111,1754.78 387.111,1754.78L387.111,1754.78Z"/></g></g></svg>